<svg width="37" height="43" viewBox="0 0 37 43" fill="none" xmlns="http://www.w3.org/2000/svg">
<path d="M1.32143 11.0859H35.6786C36.4084 11.0859 37 10.4844 37 9.74219V6.38281C37 5.64064 36.4084 5.03906 35.6786 5.03906H1.32143C0.591587 5.03906 0 5.64064 0 6.38281V9.74219C0 10.4844 0.591587 11.0859 1.32143 11.0859ZM1.32143 24.5234H35.6786C36.4084 24.5234 37 23.9219 37 23.1797V19.8203C37 19.0781 36.4084 18.4766 35.6786 18.4766H1.32143C0.591587 18.4766 0 19.0781 0 19.8203V23.1797C0 23.9219 0.591587 24.5234 1.32143 24.5234ZM1.32143 37.9609H35.6786C36.4084 37.9609 37 37.3594 37 36.6172V33.2578C37 32.5156 36.4084 31.9141 35.6786 31.9141H1.32143C0.591587 31.9141 0 32.5156 0 33.2578V36.6172C0 37.3594 0.591587 37.9609 1.32143 37.9609Z" fill="#A7586C"/>
</svg>
