<svg width="41" height="37" viewBox="0 0 41 37" fill="none" xmlns="http://www.w3.org/2000/svg">
<g clip-path="url(#clip0)">
<path d="M39.6205 18.3922L40.1574 17.7439L39.6248 18.3958L39.6205 18.3922ZM39.6202 18.3924L39.6246 18.396L39.2083 18.9055C39.2057 18.9033 39.2032 18.9012 39.2006 18.8991L39.6114 18.4031L39.6166 18.3968L39.6188 18.3942L39.6202 18.3924ZM38.6988 18.4834L37.7437 19.6389L21.774 6.42153L21.7679 6.41648L21.7618 6.4115C21.3439 6.07297 20.8227 5.88766 20.2848 5.88637C19.747 5.88507 19.2249 6.06788 18.8054 6.4044L18.7992 6.40936L18.7931 6.41439L2.76146 19.5544L1.80896 18.3908L19.098 4.22157C19.0982 4.22144 19.0983 4.22131 19.0985 4.22118C19.4335 3.947 19.8534 3.79767 20.2863 3.79871C20.7195 3.79975 21.1388 3.95124 21.4726 4.22727L21.4727 4.22736L27.7433 9.41174L30.1915 11.4358L30.1991 8.25929L30.2098 3.82155L32.824 3.82783L32.8022 12.8903L32.8005 13.5977L33.3454 14.0491L38.6988 18.4834ZM8.27106 21.7886L20.2704 11.9541L32.2193 21.8387L32.1943 32.2615L25.0873 32.2248L25.1025 25.8856C25.1042 25.19 24.8295 24.5222 24.3388 24.0291C23.8481 23.5361 23.1816 23.2581 22.486 23.2565L17.9946 23.2457C17.299 23.244 16.6312 23.5187 16.1382 24.0094C15.6451 24.5001 15.3672 25.1666 15.3655 25.8622L15.3503 32.2027L8.24604 32.2041L8.27106 21.7886ZM25.0864 32.6021L25.0864 32.5974C25.0864 32.599 25.0864 32.6005 25.0864 32.6021Z" stroke="#A7586C" stroke-width="3"/>
</g>
<defs>
<clipPath id="clip0">
<rect width="40.4224" height="35.9311" fill="white" transform="translate(0.0863037) rotate(0.137625)"/>
</clipPath>
</defs>
</svg>
