<svg width="44" height="37" viewBox="0 0 44 37" fill="none" xmlns="http://www.w3.org/2000/svg">
<g clip-path="url(#clip0)">
<path d="M36.5015 1.9339L36.5031 1.93646L41.0402 9.2178L42.311 8.42597L41.0404 9.21819C42.8916 12.1871 41.1359 16.0814 37.9551 16.4995C37.7058 16.5321 37.4562 16.5483 37.1918 16.5477C35.575 16.5438 34.1343 15.83 33.1318 14.7113L32.017 13.4673L30.8997 14.709C29.901 15.8188 28.459 16.5267 26.8336 16.5228C25.2144 16.5189 23.7691 15.8035 22.7763 14.6895L21.6619 13.439L20.5415 14.6841C19.5428 15.794 18.1008 16.5018 16.4754 16.4979C14.8562 16.494 13.4109 15.7786 12.4181 14.6646L11.3037 13.4141L10.1832 14.6592C9.18453 15.7691 7.74253 16.4769 6.11716 16.473C5.85953 16.4724 5.6035 16.455 5.35551 16.4214C2.19132 15.9823 0.458207 12.0796 2.31808 9.12479C2.31813 9.12471 2.31818 9.12462 2.31824 9.12454L6.89007 1.86533L6.89167 1.86278C7.02396 1.6518 7.26484 1.51724 7.52156 1.51785L35.8733 1.58596C36.13 1.58657 36.3703 1.72229 36.5015 1.9339ZM36.623 21.7804C36.8111 21.793 37.0013 21.7999 37.1932 21.8004C37.505 21.8012 37.8132 21.789 38.1215 21.7641L38.0926 33.7768C38.0916 34.1905 37.7589 34.5216 37.3452 34.5207L5.90557 34.4451C5.49185 34.4441 5.16067 34.1114 5.16167 33.6977L5.19052 21.6857C5.49524 21.7117 5.80166 21.725 6.10455 21.7257C6.29686 21.7262 6.48712 21.7198 6.67484 21.7076L6.66221 26.9642L6.65861 28.4642L8.1586 28.4678L35.1068 28.5325L36.6068 28.5361L36.6104 27.0361L36.623 21.7804Z" stroke="#A7586C" stroke-width="3"/>
</g>
<defs>
<clipPath id="clip0">
<rect width="43.2296" height="35.9311" fill="white" transform="translate(0.0863037) rotate(0.137625)"/>
</clipPath>
</defs>
</svg>
