<svg width="45" height="37" viewBox="0 0 45 37" fill="none" xmlns="http://www.w3.org/2000/svg">
<g clip-path="url(#clip0)">
<path d="M21.2273 29.2449L21.2297 28.2449L20.2297 28.2425L3.38711 28.202C2.75894 28.2005 2.15709 27.9495 1.71397 27.5042C1.27085 27.059 1.02276 26.4559 1.02427 25.8278L1.07821 3.37093C1.07972 2.74276 1.33071 2.14091 1.77596 1.69779C2.22121 1.25467 2.82426 1.00658 3.45243 1.00809L40.6291 1.09739L41.6291 1.09979C42.2572 1.1013 42.8591 1.35229 43.3022 1.79754L44.011 1.09213L43.3022 1.79754C43.7453 2.24279 43.9934 2.84584 43.9919 3.47401L43.938 25.9309C43.9365 26.559 43.6855 27.1609 43.2402 27.604C42.795 28.0471 42.1919 28.2952 41.5637 28.2937L24.7211 28.2532L23.7211 28.2508L23.7187 29.2508L23.7133 31.4965L23.7109 32.4965L24.7109 32.4989L37.0622 32.5286C37.0948 32.5287 37.126 32.5417 37.149 32.5648C37.1719 32.5879 37.1848 32.6191 37.1847 32.6517L37.1793 34.8974C37.1793 34.93 37.1662 34.9612 37.1431 34.9842C37.1201 35.0072 37.0888 35.02 37.0562 35.02L7.86229 34.9498C7.82971 34.9498 7.7985 34.9367 7.77552 34.9137C7.75253 34.8906 7.73967 34.8593 7.73974 34.8267L7.74514 32.581C7.74522 32.5484 7.75823 32.5172 7.78133 32.4942C7.80442 32.4713 7.8357 32.4584 7.86828 32.4585L20.2195 32.4881L21.2195 32.4905L21.2219 31.4905L21.2273 29.2449ZM40.4469 25.7996L41.4469 25.802L41.4493 24.802L41.4978 4.59087L41.5002 3.59087L40.5002 3.58847L4.56929 3.50216L3.56929 3.49976L3.56689 4.49976L3.51834 24.7109L3.51594 25.7109L4.51593 25.7133L40.4469 25.7996Z" stroke="#A7586C" stroke-width="2"/>
</g>
<defs>
<clipPath id="clip0">
<rect width="44.9138" height="35.9311" fill="white" transform="translate(0.0863037) rotate(0.137625)"/>
</clipPath>
</defs>
</svg>
