<svg width="27" height="27" viewBox="0 0 27 27" fill="none" xmlns="http://www.w3.org/2000/svg">
<path d="M25.6102 22.6601L20.5679 17.5935C20.3403 17.3648 20.0313 17.2373 19.7069 17.2365L18.8805 17.2345C20.2841 15.4483 21.1209 13.1994 21.1268 10.7507C21.1408 4.92572 16.4323 0.194533 10.6072 0.180541C4.78219 0.16655 0.0510102 4.87506 0.0370184 10.7001C0.0230266 16.5251 4.73153 21.2563 10.5566 21.2703C13.0052 21.2762 15.2581 20.4502 17.0511 19.0552L17.0491 19.8816C17.0483 20.206 17.1743 20.5156 17.4019 20.7443L22.4442 25.8109C22.9196 26.2886 23.6902 26.2904 24.1628 25.815L25.601 24.3837C26.0787 23.9083 26.0805 23.1377 25.6102 22.6601ZM10.5663 17.2146C6.98206 17.206 4.08412 14.2991 4.09274 10.7098C4.10135 7.12559 7.00817 4.22764 10.5975 4.23626C14.1817 4.24487 17.0797 7.15169 17.071 10.741C17.0624 14.3252 14.1556 17.2232 10.5663 17.2146Z" fill="#A7586C"/>
</svg>
