<svg width="55" height="55" viewBox="0 0 55 55" fill="none" xmlns="http://www.w3.org/2000/svg">
<g clip-path="url(#clip0)">
<path d="M9.20937 10.4845L38.9069 10.6392L43.6923 19.9467L45.9157 18.8036L43.6926 19.9474C44.5865 21.6847 44.6459 23.8291 44.0161 25.5979C43.3801 27.3844 42.236 28.3517 41.0741 28.533C40.8709 28.5645 40.668 28.5799 40.4492 28.5788C39.1903 28.5723 37.9313 27.9033 36.9635 26.5964L34.9706 23.9049L32.9568 26.5808C31.9862 27.8706 30.7231 28.5281 29.4546 28.5215C28.1921 28.515 26.9289 27.8429 25.9728 26.5444L23.9815 23.8402L21.9622 26.5235C20.9916 27.8133 19.7285 28.4709 18.46 28.4643C17.1975 28.4577 15.9343 27.7856 14.9782 26.4872L12.9869 23.7829L10.9675 26.4663C9.99693 27.756 8.73386 28.4136 7.46535 28.407C7.25382 28.4059 7.04491 28.3882 6.84449 28.3552C5.69306 28.1593 4.56243 27.18 3.94645 25.385C3.33655 23.6076 3.41896 21.465 4.32726 19.7417C4.32733 19.7415 4.3274 19.7414 4.32747 19.7413L9.20937 10.4845ZM7.28525 50.9881L7.31704 44.8855L9.57694 44.8973L38.1809 45.0463L40.4557 45.0582L40.4239 51.1607C40.423 51.3335 40.3803 51.4557 40.3423 51.5278L7.36299 51.356C7.32571 51.2835 7.28435 51.1609 7.28525 50.9881Z" stroke="white" stroke-width="5"/>
</g>
<defs>
<clipPath id="clip0">
<rect width="53" height="53" fill="white" transform="translate(1.16974 0.82312) rotate(0.298469)"/>
</clipPath>
</defs>
</svg>
