<svg width="53" height="53" viewBox="0 0 53 53" fill="none" xmlns="http://www.w3.org/2000/svg">
<g clip-path="url(#clip0)">
<path d="M49.1887 1.15699L4.13931 0.922318C3.08509 0.916826 2.07132 1.43504 1.32102 2.36297C0.57072 3.2909 0.145349 4.55252 0.138484 5.87029L-0.034072 38.9948C-0.0409368 40.3126 0.371267 41.5786 1.11186 42.5143C1.85245 43.45 2.86077 43.9787 3.91499 43.9842L23.7897 44.0878L23.7725 47.4002L9.19766 47.3243C8.84626 47.3225 8.50833 47.4952 8.25823 47.8045C8.00813 48.1138 7.86634 48.5344 7.86405 48.9736L7.8468 52.2861C7.84451 52.7253 7.98191 53.1473 8.22878 53.4592C8.47564 53.7711 8.81175 53.9474 9.16315 53.9492L43.6127 54.1287C43.9641 54.1305 44.302 53.9578 44.5521 53.6484C44.8022 53.3391 44.944 52.9186 44.9463 52.4793L44.9636 49.1669C44.9658 48.7276 44.8284 48.3056 44.5816 47.9937C44.3347 47.6818 43.9986 47.5056 43.6472 47.5038L29.0724 47.4278L29.0896 44.1154L48.9644 44.2189C50.0186 44.2244 51.0324 43.7062 51.7827 42.7783C52.533 41.8503 52.9583 40.5887 52.9652 39.2709L53.1378 6.14638C53.1446 4.82861 52.7324 3.56262 51.9918 2.62693C51.2512 1.69124 50.2429 1.16249 49.1887 1.15699V1.15699ZM47.6739 37.5871L5.27448 37.3662L5.42978 7.55413L47.8292 7.775L47.6739 37.5871Z" fill="white"/>
</g>
<defs>
<clipPath id="clip0">
<rect width="53" height="53" fill="white"/>
</clipPath>
</defs>
</svg>
